<svg width="207" height="84" viewBox="0 0 207 84" fill="none" xmlns="http://www.w3.org/2000/svg">
<g clip-path="url(#clip0_91_358)">
<path d="M7.98505 83.88C4.08505 83.88 0.925049 80.72 0.925049 76.82V7.06C0.925049 3.16 4.08505 0 7.98505 0H181.675C189.885 0 196.545 6.66 196.545 14.87V30.56H203.515C204.925 30.56 206.075 31.71 206.075 33.12V50.74C206.075 52.15 204.925 53.3 203.515 53.3H196.545V68.99C196.545 77.2 189.885 83.86 181.675 83.86H7.98505V83.88Z" fill="#E2E2E2" fill-opacity="0.78"/>
<path d="M34.9451 8.79L34.9451 75.09H13.2451C11.0551 75.09 9.27507 73.31 9.27507 71.12L9.27507 12.76C9.27507 10.57 11.0551 8.79 13.2451 8.79L34.9451 8.79Z" fill="#F36B37"/>
<path d="M58.4751 75.08L58.4751 8.79L32.8051 8.79V75.08H58.4751Z" fill="#F58850"/>
<path d="M82.0051 75.08V8.79L56.3351 8.79V75.08H82.0051Z" fill="#F5B34F"/>
<path d="M105.535 75.08V8.79L79.8652 8.79V75.08H105.535Z" fill="#F6D948"/>
<path d="M129.065 75.08V8.79L103.395 8.79V75.08H129.065Z" fill="#F4EC5D"/>
<path d="M187.235 17.42V66.45C187.235 71.21 183.365 75.08 178.605 75.08H126.935V8.79L178.595 8.79C183.355 8.79 187.225 12.66 187.225 17.42H187.235Z" fill="#D7F03E"/>
</g>
<defs>
<clipPath id="clip0_91_358">
<rect width="205.15" height="83.88" fill="white" transform="translate(0.925049)"/>
</clipPath>
</defs>
</svg>
