<svg width="21" height="22" viewBox="0 0 21 22" fill="none" xmlns="http://www.w3.org/2000/svg">
<path id="Vector" d="M21 19.5772C20.8708 20.0369 20.6694 20.449 20.2878 20.7571C19.5548 21.349 18.2049 21.3147 17.5031 20.6221C17.4347 20.5547 17.3657 20.4877 17.2978 20.4197C15.1245 18.2241 12.9518 16.028 10.7786 13.8319C10.5833 13.6346 10.3857 13.637 10.1857 13.8391C7.97906 16.069 5.76365 18.2905 3.57013 20.5342C2.89626 21.2234 1.78664 21.3131 1.06349 20.9828C-0.0778772 20.4617 -0.360346 18.8769 0.509505 17.8939C0.568626 17.827 0.632127 17.7645 0.69508 17.7008C2.94991 15.4218 5.20528 13.1432 7.4601 10.8642C7.5871 10.7358 7.58856 10.6088 7.46448 10.483C5.21021 8.20396 2.95264 5.92765 0.701102 3.64526C0.131237 3.06719 -0.0466742 2.36798 0.198023 1.58967C0.437793 0.82795 0.973718 0.358306 1.74613 0.212268C2.41562 0.0861448 3.02162 0.266479 3.51375 0.760463C4.62392 1.87345 5.72916 2.99141 6.83823 4.1055C8.00041 5.27325 9.16751 6.43547 10.3242 7.6093C10.4758 7.76308 10.5525 7.74704 10.6943 7.60266C12.9206 5.34406 15.1514 3.08877 17.3848 0.836801C18.3499 -0.136231 19.8948 0.0645711 20.5736 1.24338C21.0164 2.01285 20.89 3.02128 20.2676 3.65024C18.0275 5.91493 15.7864 8.17851 13.5463 10.4432C13.3131 10.6789 13.3312 10.6269 13.5523 10.8492C15.7842 13.0929 18.0144 15.3382 20.2533 17.5747C20.613 17.9343 20.89 18.3281 21 18.8315V19.5766V19.5772Z" fill="#A8A8A8"/>
</svg>
