<svg width="81" height="29" viewBox="0 0 81 29" fill="none" xmlns="http://www.w3.org/2000/svg">
<rect x="2.25" y="1.76001" width="77" height="25.74" rx="12.87" stroke="#FF6B6B" stroke-width="3"/>
<path d="M37.0547 18.6172H23.1016V17.3984H26.6719V16.0078H23.5547V14.7734H26.6719V13.6406H24.3828V8.11719H35.7109V13.6406H33.5391V14.7734H36.5156V16.0078H33.5391V17.3984H37.0547V18.6172ZM34.2578 10.2812V9.32031H30.7969V10.2812H34.2578ZM29.3438 10.2812V9.32031H25.8438V10.2812H29.3438ZM34.2578 12.4375V11.3984H30.7969V12.4375H34.2578ZM29.3438 12.4375V11.3984H25.8438V12.4375H29.3438ZM32.0781 14.7734V13.6406H28.1094V14.7734H32.0781ZM32.0781 17.3984V16.0078H28.1094V17.3984H32.0781ZM28.8828 19.7656C27.5078 20.6615 25.8438 21.3932 23.8906 21.9609L23.0391 20.7578C24.9818 20.2474 26.5495 19.6094 27.7422 18.8438L28.8828 19.7656ZM37.2656 20.8203L36.4766 21.9453C34.9714 21.1797 33.3255 20.5391 31.5391 20.0234L32.3828 18.8594C34.0443 19.3333 35.6719 19.987 37.2656 20.8203ZM56.335 8.45312C55.809 8.97917 55.223 9.48177 54.5772 9.96094L53.1866 9.35156C54.072 8.6849 54.6631 8.17708 54.96 7.82812L56.335 8.45312ZM57.5694 13.7812H56.1475V11.4453H45.8428V13.7969H44.3819V10.1719H50.2881V7.82812H51.6787V10.1719H57.5694V13.7812ZM48.8037 9.51562L47.4209 9.94531C47.0199 9.45573 46.4991 8.9375 45.8584 8.39062L47.2022 7.85156C47.7439 8.33073 48.2777 8.88542 48.8037 9.51562ZM56.6241 19.6406C56.6241 20.1406 56.5095 20.5312 56.2803 20.8125C56.0511 21.0938 55.5043 21.2344 54.6397 21.2344C54.4053 21.2344 54.0485 21.2266 53.5694 21.2109L53.1553 19.8672H54.8662C55.1215 19.8672 55.2491 19.7318 55.2491 19.4609V18.1719H51.7256V21.8672H50.3037V18.1719H46.7647V21.2734H45.3584V16.9062H50.3037V15.8828H46.8194V12.2344H55.1397V15.8828H51.7256V16.9062H56.6241V19.6406ZM53.7256 14.6953V13.4297H48.2412V14.6953H53.7256Z" fill="#FF6B6B"/>
</svg>
