<svg width="81" height="30" viewBox="0 0 81 30" fill="none" xmlns="http://www.w3.org/2000/svg">
<rect x="2.25" y="2.02" width="77" height="25.74" rx="12.87" stroke="#6DE479" stroke-width="3"/>
<path d="M25.7344 15.1015C25.7344 13.1901 26.2682 11.6458 27.3359 10.4687C28.4089 9.28644 29.8542 8.6953 31.6719 8.6953C33.375 8.6953 34.7422 9.26821 35.7734 10.414C36.8047 11.5599 37.3203 13.0286 37.3203 14.8203C37.3203 16.7213 36.7943 18.2604 35.7422 19.4375C34.6901 20.6146 33.2682 21.2031 31.4766 21.2031C29.7682 21.2031 28.3828 20.6354 27.3203 19.5C26.263 18.3646 25.7344 16.8984 25.7344 15.1015ZM27.7031 14.9687C27.7031 16.3021 28.0443 17.401 28.7266 18.2656C29.4089 19.125 30.3307 19.5547 31.4922 19.5547C32.7109 19.5547 33.6589 19.1458 34.3359 18.3281C35.013 17.5052 35.3516 16.3958 35.3516 15C35.3516 13.5729 35.0234 12.4427 34.3672 11.6094C33.7161 10.776 32.7865 10.3594 31.5781 10.3594C30.401 10.3594 29.4609 10.7917 28.7578 11.6562C28.0547 12.5208 27.7031 13.625 27.7031 14.9687ZM54.6866 21H52.5928L46.8037 12.0781C46.5902 11.75 46.434 11.4661 46.335 11.2265H46.2881C46.335 11.539 46.3584 12.1276 46.3584 12.9922V21H44.5381V8.89842H46.7569L52.3741 17.6484C52.6397 18.0651 52.8168 18.3542 52.9053 18.5156H52.9444C52.8871 18.1406 52.8584 17.5625 52.8584 16.7812V8.89842H54.6866V21Z" fill="#5FD76C"/>
</svg>
