<svg width="23" height="19" viewBox="0 0 23 19" fill="none" xmlns="http://www.w3.org/2000/svg">
<path id="Vector" d="M19.1687 18.4971C19.9854 18.4971 20.8012 18.5051 21.6179 18.4947C22.4809 18.4834 22.9911 18.0039 22.9999 17.2185C23.0094 16.3611 22.5161 15.8607 21.6187 15.8519C20.5138 15.8407 19.4082 15.8399 18.3033 15.8543C18.0087 15.8583 17.9033 15.7807 17.9089 15.47C17.9264 14.3724 17.9169 13.274 17.9153 12.1756C17.9137 11.2445 17.4219 10.7482 16.499 10.7458C15.3941 10.7434 14.2884 10.7378 13.1835 10.7506C12.9129 10.7538 12.8187 10.6737 12.8219 10.3951C12.8347 9.3071 12.8267 8.2183 12.8275 7.1303C12.8275 6.86851 12.8083 6.60832 12.699 6.36814C12.4778 5.88138 12.0882 5.64841 11.5597 5.64681C10.3846 5.64441 9.21023 5.6388 8.03508 5.65081C7.77004 5.65401 7.69499 5.57075 7.69739 5.30896C7.71016 4.17052 7.70378 3.03289 7.70218 1.89445C7.70058 1.03222 7.25431 0.527044 6.3985 0.515836C4.70603 0.492618 3.01356 0.497422 1.32109 0.514234C0.606583 0.52144 0.134766 0.921734 0.0277882 1.53018C-0.0895672 2.19787 0.169893 2.76869 0.709568 3.01688C0.958647 3.13136 1.22609 3.15538 1.49672 3.15538C2.5617 3.15538 3.62748 3.15538 4.69246 3.15538C5.09402 3.15538 5.09562 3.15698 5.09562 3.54767C5.09562 4.64607 5.09402 5.74448 5.09641 6.84209C5.09881 7.75476 5.59378 8.25433 6.49829 8.25753C7.60318 8.26073 8.70888 8.26634 9.81377 8.25273C10.0972 8.24952 10.1954 8.33118 10.1914 8.6234C10.177 9.69138 10.1842 10.7602 10.1874 11.8282C10.1874 11.9867 10.2002 12.1476 10.2265 12.3045C10.3343 12.9586 10.7798 13.3509 11.4392 13.3549C12.6143 13.3621 13.7887 13.3661 14.9638 13.3517C15.2432 13.3485 15.3191 13.4365 15.3159 13.7095C15.3023 14.8376 15.3087 15.9656 15.3111 17.0944C15.3127 17.9967 15.7821 18.481 16.6906 18.4939C17.5169 18.5059 18.3432 18.4963 19.1695 18.4963L19.1687 18.4971Z" fill="#C2A344"/>
</svg>
