<svg width="172" height="104" viewBox="0 0 172 104" fill="none" xmlns="http://www.w3.org/2000/svg">
<g id="Group 38">
<g id="Group">
<path id="Vector" d="M25.8099 99.75H11.6199C10.5098 99.75 9.60986 100.648 9.60986 101.755C9.60986 102.862 10.5098 103.76 11.6199 103.76H25.8099C26.92 103.76 27.8199 102.862 27.8199 101.755C27.8199 100.648 26.92 99.75 25.8099 99.75Z" fill="#EA4949"/>
<path id="Vector_2" d="M48.7298 99.75H34.5398C33.4297 99.75 32.5298 100.648 32.5298 101.755C32.5298 102.862 33.4297 103.76 34.5398 103.76H48.7298C49.8399 103.76 50.7398 102.862 50.7398 101.755C50.7398 100.648 49.8399 99.75 48.7298 99.75Z" fill="#D05C45"/>
<path id="Vector_3" d="M71.65 99.75H57.4599C56.3499 99.75 55.45 100.648 55.45 101.755C55.45 102.862 56.3499 103.76 57.4599 103.76H71.65C72.76 103.76 73.66 102.862 73.66 101.755C73.66 100.648 72.76 99.75 71.65 99.75Z" fill="#B66F41"/>
<path id="Vector_4" d="M94.5699 99.75H80.3799C79.2698 99.75 78.3699 100.648 78.3699 101.755C78.3699 102.862 79.2698 103.76 80.3799 103.76H94.5699C95.68 103.76 96.5799 102.862 96.5799 101.755C96.5799 100.648 95.68 99.75 94.5699 99.75Z" fill="#9D823D"/>
<path id="Vector_5" d="M117.5 99.75H103.31C102.2 99.75 101.3 100.648 101.3 101.755C101.3 102.862 102.2 103.76 103.31 103.76H117.5C118.61 103.76 119.51 102.862 119.51 101.755C119.51 100.648 118.61 99.75 117.5 99.75Z" fill="#839439"/>
<path id="Vector_6" d="M140.42 99.75H126.23C125.12 99.75 124.22 100.648 124.22 101.755C124.22 102.862 125.12 103.76 126.23 103.76H140.42C141.53 103.76 142.43 102.862 142.43 101.755C142.43 100.648 141.53 99.75 140.42 99.75Z" fill="#69A735"/>
<path id="Vector_7" d="M163.34 99.75H149.15C148.04 99.75 147.14 100.648 147.14 101.755C147.14 102.862 148.04 103.76 149.15 103.76H163.34C164.45 103.76 165.35 102.862 165.35 101.755C165.35 100.648 164.45 99.75 163.34 99.75Z" fill="#4FBA31"/>
</g>
<g id="Group_2">
<path id="Vector_8" d="M113.06 87.37C113.06 72.39 100.84 60.17 85.8599 60.17C70.8799 60.17 58.6599 72.39 58.6599 87.37H113.05H113.06Z" fill="#8C8C8C"/>
<path id="Vector_9" fill-rule="evenodd" clip-rule="evenodd" d="M85.86 36.14C99.42 36.14 111.69 41.64 120.57 50.52C129.45 59.4 134.95 71.68 134.95 85.23C134.95 85.94 134.93 86.66 134.9 87.36H129.86C129.89 86.65 129.91 85.94 129.91 85.23C129.91 73.06 124.98 62.05 117.01 54.08C109.04 46.11 98.02 41.18 85.86 41.18C73.7 41.18 62.68 46.11 54.71 54.08C46.74 62.05 41.81 73.07 41.81 85.23C41.81 85.94 41.83 86.66 41.86 87.36H36.82C36.79 86.65 36.77 85.94 36.77 85.23C36.77 71.67 42.27 59.4 51.15 50.52C60.03 41.64 72.31 36.14 85.86 36.14Z" fill="#CCCCCC"/>
<path id="Vector_10" d="M101.33 87.37C101.33 78.85 94.3799 71.9 85.8599 71.9C77.3399 71.9 70.3899 78.85 70.3899 87.37H101.32H101.33Z" fill="#B8B8B8"/>
<path id="Vector_11" d="M160.83 87.37C160.83 46.12 127.39 12.69 86.15 12.69C44.91 12.69 11.46 46.12 11.46 87.37" stroke="url(#paint0_linear_91_404)" stroke-width="3" stroke-miterlimit="10"/>
<path id="Vector_12" d="M16.7 83.49H2.51C1.39991 83.49 0.5 84.3877 0.5 85.495C0.5 86.6023 1.39991 87.5 2.51 87.5H16.7C17.8101 87.5 18.71 86.6023 18.71 85.495C18.71 84.3877 17.8101 83.49 16.7 83.49Z" fill="#EA4949"/>
<path id="Vector_13" d="M155.16 87.51H169.35C170.46 87.51 171.36 86.6123 171.36 85.505C171.36 84.3977 170.46 83.5 169.35 83.5H155.16C154.05 83.5 153.15 84.3977 153.15 85.505C153.15 86.6123 154.05 87.51 155.16 87.51Z" fill="#4FBA31"/>
<path id="Vector_14" d="M147.048 52.2875L159.336 45.1925C160.298 44.6375 160.628 43.4101 160.075 42.4511C159.521 41.4922 158.293 41.1647 157.331 41.7198L145.043 48.8148C144.081 49.3698 143.751 50.5972 144.304 51.5561C144.858 52.5151 146.086 52.8426 147.048 52.2875Z" fill="#69A735"/>
<path id="Vector_15" d="M122.086 26.7027L129.181 14.4138C129.736 13.4524 129.409 12.2242 128.45 11.6705C127.491 11.1169 126.264 11.4474 125.709 12.4088L118.614 24.6977C118.058 25.659 118.386 26.8872 119.345 27.4409C120.304 27.9945 121.531 27.664 122.086 26.7027Z" fill="#839439"/>
<path id="Vector_16" d="M87.8701 16.2V2.01C87.8701 0.89991 86.9724 0 85.8651 0C84.7578 0 83.8601 0.89991 83.8601 2.01V16.2C83.8601 17.3101 84.7578 18.21 85.8651 18.21C86.9724 18.21 87.8701 17.3101 87.8701 16.2Z" fill="#9D823D"/>
<path id="Vector_17" d="M52.9198 23.9687L45.6135 11.8042C45.042 10.8526 43.8091 10.5433 42.8598 11.1135C41.9105 11.6836 41.6044 12.9173 42.1759 13.8689L49.4822 26.0334C50.0538 26.985 51.2867 27.2943 52.2359 26.7241C53.1852 26.154 53.4914 24.9203 52.9198 23.9687Z" fill="#B66F41"/>
<path id="Vector_18" d="M26.7152 49.0417L14.4263 41.9467C13.4649 41.3916 12.2367 41.7191 11.683 42.678C11.1294 43.637 11.4599 44.8644 12.4213 45.4194L24.7102 52.5144C25.6715 53.0695 26.8997 52.742 27.4534 51.783C28.007 50.8241 27.6765 49.5967 26.7152 49.0417Z" fill="#D05C45"/>
</g>
</g>
<defs>
<linearGradient id="paint0_linear_91_404" x1="9.95996" y1="49.28" x2="162.33" y2="49.28" gradientUnits="userSpaceOnUse">
<stop stop-color="#EA4949"/>
<stop offset="1" stop-color="#4FBA31"/>
</linearGradient>
</defs>
</svg>
