<svg width="6" height="10" viewBox="0 0 6 10" fill="none" xmlns="http://www.w3.org/2000/svg">
<path id="Vector" d="M0.00372418 4.98186C0.00372418 3.62898 0.00959143 2.2761 5.71476e-05 0.923224C-0.00287648 0.534669 0.106401 0.214641 0.49804 0.0648704C0.875745 -0.0799548 1.21751 0.0260148 1.50207 0.300123C2.87574 1.62192 4.25382 2.93947 5.61795 4.26974C6.14087 4.77981 6.1196 5.19239 5.59962 5.69751C4.29415 6.96773 2.98869 8.23866 1.68323 9.50818C1.58862 9.60002 1.49401 9.69327 1.38913 9.7731C1.11264 9.98292 0.811938 10.0818 0.471638 9.91722C0.129137 9.7512 -0.00214307 9.47709 5.71476e-05 9.10973C0.00885803 7.73354 0.00372418 6.35735 0.00372418 4.98115V4.98186Z" fill="#C2A344"/>
</svg>
