<svg width="26" height="27" viewBox="0 0 26 27" fill="none" xmlns="http://www.w3.org/2000/svg">
<g id="house-door">
<path id="Vector" d="M13.5753 2.36225C13.4998 2.28659 13.4101 2.22656 13.3114 2.18559C13.2127 2.14463 13.1069 2.12355 13 2.12355C12.8931 2.12355 12.7873 2.14463 12.6886 2.18559C12.5899 2.22656 12.5002 2.28659 12.4248 2.36225L2.67475 12.1123C2.59935 12.1878 2.53958 12.2776 2.49887 12.3763C2.45817 12.475 2.43731 12.5807 2.4375 12.6875V24.0625C2.4375 24.278 2.5231 24.4847 2.67548 24.637C2.82785 24.7894 3.03451 24.875 3.25 24.875H10.5625C10.778 24.875 10.9847 24.7894 11.137 24.637C11.2894 24.4847 11.375 24.278 11.375 24.0625V17.5625H14.625V24.0625C14.625 24.278 14.7106 24.4847 14.863 24.637C15.0154 24.7894 15.222 24.875 15.4375 24.875H22.75C22.9655 24.875 23.1722 24.7894 23.3245 24.637C23.4769 24.4847 23.5625 24.278 23.5625 24.0625V12.6875C23.5627 12.5807 23.5418 12.475 23.5011 12.3763C23.4604 12.2776 23.4007 12.1878 23.3253 12.1123L21.125 9.91363V4.5625C21.125 4.34701 21.0394 4.14035 20.887 3.98798C20.7347 3.83561 20.528 3.75 20.3125 3.75H18.6875C18.472 3.75 18.2654 3.83561 18.113 3.98798C17.9606 4.14035 17.875 4.34701 17.875 4.5625V6.66363L13.5753 2.36225ZM4.0625 23.25V13.0239L13 4.08638L21.9375 13.0239V23.25H16.25V16.75C16.25 16.5345 16.1644 16.3279 16.012 16.1755C15.8597 16.0231 15.653 15.9375 15.4375 15.9375H10.5625C10.347 15.9375 10.1404 16.0231 9.98798 16.1755C9.8356 16.3279 9.75 16.5345 9.75 16.75V23.25H4.0625Z" fill="#717171"/>
</g>
</svg>
