<svg width="30" height="32" viewBox="0 0 30 32" fill="none" xmlns="http://www.w3.org/2000/svg">
<mask id="path-1-outside-1_208_37736" maskUnits="userSpaceOnUse" x="0" y="0" width="30" height="32" fill="black">
<rect fill="white" width="30" height="32"/>
<path d="M14.7756 30.3629C13.9591 30.0411 13.7365 29.7238 13.7334 28.8694C13.7319 28.362 13.7234 27.8538 13.7373 27.3471C13.7442 27.0911 13.6664 27.0911 13.4669 27.2065C13.0309 27.458 12.5934 27.7103 12.1405 27.9329C11.2801 28.3553 10.3966 27.9152 10.2341 26.9994C10.1509 26.5326 10.3989 26.054 10.8919 25.7752C11.6868 25.3261 12.4802 24.8734 13.2921 24.4533C13.6202 24.2831 13.748 24.0893 13.7434 23.7217C13.7195 22.0425 13.7319 20.3626 13.7296 18.6835C13.7296 18.3417 13.7203 18.3387 13.4076 18.5118C11.8686 19.3647 10.3312 20.2221 8.78679 21.0661C8.53723 21.2022 8.44249 21.362 8.44788 21.6386C8.46482 22.5522 8.45789 23.4657 8.4525 24.3793C8.44788 25.1664 7.91948 25.6797 7.12996 25.676C6.409 25.6731 5.88137 25.122 5.87829 24.366C5.87675 23.8955 5.87135 23.4243 5.8806 22.9539C5.88445 22.7549 5.84748 22.7053 5.64875 22.8185C5.10417 23.1299 4.55113 23.428 4.00116 23.7306C3.73542 23.877 3.45196 23.9458 3.14463 23.9111C2.61623 23.8511 2.16948 23.4776 2.04162 22.9879C1.90605 22.4693 2.10555 21.9515 2.58388 21.6667C3.16389 21.322 3.75468 20.9943 4.34624 20.6681C4.52494 20.5697 4.5596 20.5135 4.3524 20.404C3.88947 20.1592 3.42731 19.9129 2.9821 19.6399C2.39825 19.2819 2.20183 18.6894 2.44908 18.1294C2.77644 17.3882 3.54362 17.1219 4.31235 17.5221C5.14808 17.957 5.96995 18.4186 6.78334 18.8921C7.05756 19.0518 7.27169 19.057 7.54898 18.9002C9.05561 18.048 10.573 17.2136 12.0851 16.3711C12.3693 16.2128 12.367 16.1965 12.0966 16.0471C10.5407 15.1853 8.9809 14.3295 7.43113 13.4566C7.17772 13.3138 6.98284 13.3264 6.74252 13.4647C5.94222 13.9234 5.13652 14.3731 4.32544 14.8132C3.54517 15.2364 2.62855 14.8865 2.40364 14.0927C2.25575 13.572 2.42135 13.0764 2.88967 12.779C3.33796 12.4942 3.80474 12.2361 4.2746 11.9845C4.49721 11.8647 4.45099 11.8055 4.2669 11.7049C3.72464 11.4083 3.18006 11.1132 2.65089 10.7951C2.21415 10.5332 2.00464 10.1315 2.05702 9.64259C2.11171 9.13144 2.41596 8.77194 2.91663 8.58997C3.33257 8.43907 3.72926 8.53375 4.10283 8.74161C4.60196 9.01901 5.10109 9.29566 5.60022 9.57158C5.86442 9.7173 5.87752 9.71065 5.87906 9.41476C5.88137 8.91619 5.87521 8.41835 5.88137 7.91978C5.88907 7.22297 6.41439 6.68371 7.10608 6.65338C7.81472 6.62231 8.39781 7.12162 8.45173 7.82584C8.52799 8.82076 8.47792 9.8179 8.47869 10.8143C8.47869 11.0887 8.56881 11.247 8.82145 11.3846C10.3597 12.2213 11.8879 13.0742 13.4199 13.9204C13.728 14.0905 13.7365 14.0839 13.7365 13.7362C13.7365 11.9919 13.7319 10.2477 13.7419 8.50416C13.7434 8.24896 13.6541 8.10249 13.4238 7.97748C12.5541 7.50554 11.6914 7.02102 10.8341 6.52911C10.3905 6.2739 10.1756 5.87372 10.238 5.38476C10.3065 4.84994 10.6061 4.45419 11.1692 4.30181C11.5497 4.19899 11.9102 4.2848 12.2483 4.47269C12.6558 4.69904 13.0679 4.91726 13.4731 5.14805C13.6718 5.26123 13.7388 5.22276 13.735 4.99937C13.7265 4.46455 13.7257 3.92899 13.735 3.39343C13.7442 2.84086 13.9344 2.37484 14.4913 2.12555C15.3787 1.72832 16.3076 2.31566 16.3361 3.29653C16.3523 3.85872 16.3477 4.42239 16.3361 4.98531C16.3315 5.2272 16.4016 5.25975 16.6103 5.13843C17.0217 4.8995 17.4384 4.67093 17.8558 4.4431C18.5144 4.08359 19.2885 4.24633 19.6552 4.81814C20.048 5.43136 19.8616 6.17256 19.1869 6.56462C18.348 7.05135 17.4992 7.52107 16.645 7.98266C16.4262 8.10101 16.3292 8.23342 16.3307 8.48123C16.3407 10.2255 16.3354 11.969 16.3361 13.7133C16.3361 14.0092 16.3431 14.0114 16.6111 13.8634C18.1763 12.998 19.7391 12.1288 21.3082 11.27C21.5377 11.1442 21.6286 10.9948 21.6247 10.7403C21.6116 9.8179 21.614 8.89473 21.6224 7.9723C21.6286 7.28436 21.9837 6.84423 22.6253 6.69481C23.4056 6.51357 24.1651 7.06171 24.1851 7.8325C24.1982 8.35844 24.1951 8.88438 24.1889 9.41032C24.1866 9.60634 24.2429 9.63667 24.4185 9.53681C24.9561 9.23205 25.4922 8.92284 26.043 8.64175C26.797 8.25783 27.642 8.60624 27.8931 9.38369C28.0657 9.91777 27.8508 10.4666 27.3108 10.7906C26.8063 11.0939 26.2848 11.3721 25.7711 11.6613C25.5903 11.7629 25.5875 11.8627 25.7626 11.9609C26.1862 12.1976 26.6106 12.4321 27.0312 12.674C27.7152 13.0675 27.917 13.7443 27.545 14.382C27.1945 14.9819 26.4104 15.1757 25.7395 14.8125C24.97 14.396 24.1912 13.9892 23.4503 13.5283C23.0543 13.2828 22.7624 13.2953 22.3634 13.5261C20.8653 14.3916 19.3432 15.2186 17.8312 16.0611C17.5485 16.2187 17.5501 16.2202 17.8235 16.3718C19.3694 17.2321 20.9184 18.0872 22.4597 18.9564C22.7216 19.1036 22.9265 19.1184 23.1976 18.9616C24.0364 18.4749 24.8922 18.0162 25.7441 17.5509C26.4104 17.187 27.1621 17.352 27.5326 17.9363C27.9185 18.5436 27.7314 19.2649 27.0674 19.6628C26.6114 19.9365 26.1423 20.1903 25.6748 20.4455C25.4922 20.5453 25.4414 20.6067 25.6671 20.7273C26.2548 21.0409 26.8463 21.3516 27.4086 21.7037C28.2459 22.2282 28.1797 23.3881 27.3016 23.8252C26.8779 24.0361 26.4458 24.0139 26.0329 23.7905C25.5053 23.5057 24.98 23.2172 24.4601 22.9191C24.259 22.8037 24.1805 22.8081 24.1882 23.0626C24.202 23.5146 24.1959 23.9665 24.1889 24.4192C24.1774 25.159 23.6305 25.6805 22.8795 25.676C22.1624 25.6723 21.6209 25.1272 21.6178 24.4008C21.6147 23.4961 21.6078 22.5921 21.6232 21.6882C21.6278 21.4293 21.5277 21.285 21.302 21.1615C19.7345 20.2997 18.1732 19.4284 16.6096 18.5607C16.3515 18.4179 16.3315 18.4282 16.3315 18.7204C16.3315 20.4462 16.3369 22.172 16.3315 23.897C16.3315 24.1093 16.4108 24.2321 16.6003 24.3364C17.4838 24.8224 18.3658 25.3121 19.2377 25.8166C19.7253 26.0984 19.9286 26.5689 19.8216 27.066C19.7014 27.6237 19.3147 27.9921 18.7501 28.0883C18.4382 28.1415 18.1578 28.0417 17.8936 27.907C17.4607 27.6866 17.0386 27.4477 16.6111 27.2183C16.3731 27.0911 16.3346 27.1103 16.3323 27.3722C16.3277 27.8523 16.3115 28.3331 16.3354 28.8117C16.3731 29.5766 16.0858 30.1217 15.2932 30.3636H14.774L14.7756 30.3629Z"/>
</mask>
<path d="M14.7756 30.3629C13.9591 30.0411 13.7365 29.7238 13.7334 28.8694C13.7319 28.362 13.7234 27.8538 13.7373 27.3471C13.7442 27.0911 13.6664 27.0911 13.4669 27.2065C13.0309 27.458 12.5934 27.7103 12.1405 27.9329C11.2801 28.3553 10.3966 27.9152 10.2341 26.9994C10.1509 26.5326 10.3989 26.054 10.8919 25.7752C11.6868 25.3261 12.4802 24.8734 13.2921 24.4533C13.6202 24.2831 13.748 24.0893 13.7434 23.7217C13.7195 22.0425 13.7319 20.3626 13.7296 18.6835C13.7296 18.3417 13.7203 18.3387 13.4076 18.5118C11.8686 19.3647 10.3312 20.2221 8.78679 21.0661C8.53723 21.2022 8.44249 21.362 8.44788 21.6386C8.46482 22.5522 8.45789 23.4657 8.4525 24.3793C8.44788 25.1664 7.91948 25.6797 7.12996 25.676C6.409 25.6731 5.88137 25.122 5.87829 24.366C5.87675 23.8955 5.87135 23.4243 5.8806 22.9539C5.88445 22.7549 5.84748 22.7053 5.64875 22.8185C5.10417 23.1299 4.55113 23.428 4.00116 23.7306C3.73542 23.877 3.45196 23.9458 3.14463 23.9111C2.61623 23.8511 2.16948 23.4776 2.04162 22.9879C1.90605 22.4693 2.10555 21.9515 2.58388 21.6667C3.16389 21.322 3.75468 20.9943 4.34624 20.6681C4.52494 20.5697 4.5596 20.5135 4.3524 20.404C3.88947 20.1592 3.42731 19.9129 2.9821 19.6399C2.39825 19.2819 2.20183 18.6894 2.44908 18.1294C2.77644 17.3882 3.54362 17.1219 4.31235 17.5221C5.14808 17.957 5.96995 18.4186 6.78334 18.8921C7.05756 19.0518 7.27169 19.057 7.54898 18.9002C9.05561 18.048 10.573 17.2136 12.0851 16.3711C12.3693 16.2128 12.367 16.1965 12.0966 16.0471C10.5407 15.1853 8.9809 14.3295 7.43113 13.4566C7.17772 13.3138 6.98284 13.3264 6.74252 13.4647C5.94222 13.9234 5.13652 14.3731 4.32544 14.8132C3.54517 15.2364 2.62855 14.8865 2.40364 14.0927C2.25575 13.572 2.42135 13.0764 2.88967 12.779C3.33796 12.4942 3.80474 12.2361 4.2746 11.9845C4.49721 11.8647 4.45099 11.8055 4.2669 11.7049C3.72464 11.4083 3.18006 11.1132 2.65089 10.7951C2.21415 10.5332 2.00464 10.1315 2.05702 9.64259C2.11171 9.13144 2.41596 8.77194 2.91663 8.58997C3.33257 8.43907 3.72926 8.53375 4.10283 8.74161C4.60196 9.01901 5.10109 9.29566 5.60022 9.57158C5.86442 9.7173 5.87752 9.71065 5.87906 9.41476C5.88137 8.91619 5.87521 8.41835 5.88137 7.91978C5.88907 7.22297 6.41439 6.68371 7.10608 6.65338C7.81472 6.62231 8.39781 7.12162 8.45173 7.82584C8.52799 8.82076 8.47792 9.8179 8.47869 10.8143C8.47869 11.0887 8.56881 11.247 8.82145 11.3846C10.3597 12.2213 11.8879 13.0742 13.4199 13.9204C13.728 14.0905 13.7365 14.0839 13.7365 13.7362C13.7365 11.9919 13.7319 10.2477 13.7419 8.50416C13.7434 8.24896 13.6541 8.10249 13.4238 7.97748C12.5541 7.50554 11.6914 7.02102 10.8341 6.52911C10.3905 6.2739 10.1756 5.87372 10.238 5.38476C10.3065 4.84994 10.6061 4.45419 11.1692 4.30181C11.5497 4.19899 11.9102 4.2848 12.2483 4.47269C12.6558 4.69904 13.0679 4.91726 13.4731 5.14805C13.6718 5.26123 13.7388 5.22276 13.735 4.99937C13.7265 4.46455 13.7257 3.92899 13.735 3.39343C13.7442 2.84086 13.9344 2.37484 14.4913 2.12555C15.3787 1.72832 16.3076 2.31566 16.3361 3.29653C16.3523 3.85872 16.3477 4.42239 16.3361 4.98531C16.3315 5.2272 16.4016 5.25975 16.6103 5.13843C17.0217 4.8995 17.4384 4.67093 17.8558 4.4431C18.5144 4.08359 19.2885 4.24633 19.6552 4.81814C20.048 5.43136 19.8616 6.17256 19.1869 6.56462C18.348 7.05135 17.4992 7.52107 16.645 7.98266C16.4262 8.10101 16.3292 8.23342 16.3307 8.48123C16.3407 10.2255 16.3354 11.969 16.3361 13.7133C16.3361 14.0092 16.3431 14.0114 16.6111 13.8634C18.1763 12.998 19.7391 12.1288 21.3082 11.27C21.5377 11.1442 21.6286 10.9948 21.6247 10.7403C21.6116 9.8179 21.614 8.89473 21.6224 7.9723C21.6286 7.28436 21.9837 6.84423 22.6253 6.69481C23.4056 6.51357 24.1651 7.06171 24.1851 7.8325C24.1982 8.35844 24.1951 8.88438 24.1889 9.41032C24.1866 9.60634 24.2429 9.63667 24.4185 9.53681C24.9561 9.23205 25.4922 8.92284 26.043 8.64175C26.797 8.25783 27.642 8.60624 27.8931 9.38369C28.0657 9.91777 27.8508 10.4666 27.3108 10.7906C26.8063 11.0939 26.2848 11.3721 25.7711 11.6613C25.5903 11.7629 25.5875 11.8627 25.7626 11.9609C26.1862 12.1976 26.6106 12.4321 27.0312 12.674C27.7152 13.0675 27.917 13.7443 27.545 14.382C27.1945 14.9819 26.4104 15.1757 25.7395 14.8125C24.97 14.396 24.1912 13.9892 23.4503 13.5283C23.0543 13.2828 22.7624 13.2953 22.3634 13.5261C20.8653 14.3916 19.3432 15.2186 17.8312 16.0611C17.5485 16.2187 17.5501 16.2202 17.8235 16.3718C19.3694 17.2321 20.9184 18.0872 22.4597 18.9564C22.7216 19.1036 22.9265 19.1184 23.1976 18.9616C24.0364 18.4749 24.8922 18.0162 25.7441 17.5509C26.4104 17.187 27.1621 17.352 27.5326 17.9363C27.9185 18.5436 27.7314 19.2649 27.0674 19.6628C26.6114 19.9365 26.1423 20.1903 25.6748 20.4455C25.4922 20.5453 25.4414 20.6067 25.6671 20.7273C26.2548 21.0409 26.8463 21.3516 27.4086 21.7037C28.2459 22.2282 28.1797 23.3881 27.3016 23.8252C26.8779 24.0361 26.4458 24.0139 26.0329 23.7905C25.5053 23.5057 24.98 23.2172 24.4601 22.9191C24.259 22.8037 24.1805 22.8081 24.1882 23.0626C24.202 23.5146 24.1959 23.9665 24.1889 24.4192C24.1774 25.159 23.6305 25.6805 22.8795 25.676C22.1624 25.6723 21.6209 25.1272 21.6178 24.4008C21.6147 23.4961 21.6078 22.5921 21.6232 21.6882C21.6278 21.4293 21.5277 21.285 21.302 21.1615C19.7345 20.2997 18.1732 19.4284 16.6096 18.5607C16.3515 18.4179 16.3315 18.4282 16.3315 18.7204C16.3315 20.4462 16.3369 22.172 16.3315 23.897C16.3315 24.1093 16.4108 24.2321 16.6003 24.3364C17.4838 24.8224 18.3658 25.3121 19.2377 25.8166C19.7253 26.0984 19.9286 26.5689 19.8216 27.066C19.7014 27.6237 19.3147 27.9921 18.7501 28.0883C18.4382 28.1415 18.1578 28.0417 17.8936 27.907C17.4607 27.6866 17.0386 27.4477 16.6111 27.2183C16.3731 27.0911 16.3346 27.1103 16.3323 27.3722C16.3277 27.8523 16.3115 28.3331 16.3354 28.8117C16.3731 29.5766 16.0858 30.1217 15.2932 30.3636H14.774L14.7756 30.3629Z" fill="white"/>
<path d="M14.7756 30.3629C13.9591 30.0411 13.7365 29.7238 13.7334 28.8694C13.7319 28.362 13.7234 27.8538 13.7373 27.3471C13.7442 27.0911 13.6664 27.0911 13.4669 27.2065C13.0309 27.458 12.5934 27.7103 12.1405 27.9329C11.2801 28.3553 10.3966 27.9152 10.2341 26.9994C10.1509 26.5326 10.3989 26.054 10.8919 25.7752C11.6868 25.3261 12.4802 24.8734 13.2921 24.4533C13.6202 24.2831 13.748 24.0893 13.7434 23.7217C13.7195 22.0425 13.7319 20.3626 13.7296 18.6835C13.7296 18.3417 13.7203 18.3387 13.4076 18.5118C11.8686 19.3647 10.3312 20.2221 8.78679 21.0661C8.53723 21.2022 8.44249 21.362 8.44788 21.6386C8.46482 22.5522 8.45789 23.4657 8.4525 24.3793C8.44788 25.1664 7.91948 25.6797 7.12996 25.676C6.409 25.6731 5.88137 25.122 5.87829 24.366C5.87675 23.8955 5.87135 23.4243 5.8806 22.9539C5.88445 22.7549 5.84748 22.7053 5.64875 22.8185C5.10417 23.1299 4.55113 23.428 4.00116 23.7306C3.73542 23.877 3.45196 23.9458 3.14463 23.9111C2.61623 23.8511 2.16948 23.4776 2.04162 22.9879C1.90605 22.4693 2.10555 21.9515 2.58388 21.6667C3.16389 21.322 3.75468 20.9943 4.34624 20.6681C4.52494 20.5697 4.5596 20.5135 4.3524 20.404C3.88947 20.1592 3.42731 19.9129 2.9821 19.6399C2.39825 19.2819 2.20183 18.6894 2.44908 18.1294C2.77644 17.3882 3.54362 17.1219 4.31235 17.5221C5.14808 17.957 5.96995 18.4186 6.78334 18.8921C7.05756 19.0518 7.27169 19.057 7.54898 18.9002C9.05561 18.048 10.573 17.2136 12.0851 16.3711C12.3693 16.2128 12.367 16.1965 12.0966 16.0471C10.5407 15.1853 8.9809 14.3295 7.43113 13.4566C7.17772 13.3138 6.98284 13.3264 6.74252 13.4647C5.94222 13.9234 5.13652 14.3731 4.32544 14.8132C3.54517 15.2364 2.62855 14.8865 2.40364 14.0927C2.25575 13.572 2.42135 13.0764 2.88967 12.779C3.33796 12.4942 3.80474 12.2361 4.2746 11.9845C4.49721 11.8647 4.45099 11.8055 4.2669 11.7049C3.72464 11.4083 3.18006 11.1132 2.65089 10.7951C2.21415 10.5332 2.00464 10.1315 2.05702 9.64259C2.11171 9.13144 2.41596 8.77194 2.91663 8.58997C3.33257 8.43907 3.72926 8.53375 4.10283 8.74161C4.60196 9.01901 5.10109 9.29566 5.60022 9.57158C5.86442 9.7173 5.87752 9.71065 5.87906 9.41476C5.88137 8.91619 5.87521 8.41835 5.88137 7.91978C5.88907 7.22297 6.41439 6.68371 7.10608 6.65338C7.81472 6.62231 8.39781 7.12162 8.45173 7.82584C8.52799 8.82076 8.47792 9.8179 8.47869 10.8143C8.47869 11.0887 8.56881 11.247 8.82145 11.3846C10.3597 12.2213 11.8879 13.0742 13.4199 13.9204C13.728 14.0905 13.7365 14.0839 13.7365 13.7362C13.7365 11.9919 13.7319 10.2477 13.7419 8.50416C13.7434 8.24896 13.6541 8.10249 13.4238 7.97748C12.5541 7.50554 11.6914 7.02102 10.8341 6.52911C10.3905 6.2739 10.1756 5.87372 10.238 5.38476C10.3065 4.84994 10.6061 4.45419 11.1692 4.30181C11.5497 4.19899 11.9102 4.2848 12.2483 4.47269C12.6558 4.69904 13.0679 4.91726 13.4731 5.14805C13.6718 5.26123 13.7388 5.22276 13.735 4.99937C13.7265 4.46455 13.7257 3.92899 13.735 3.39343C13.7442 2.84086 13.9344 2.37484 14.4913 2.12555C15.3787 1.72832 16.3076 2.31566 16.3361 3.29653C16.3523 3.85872 16.3477 4.42239 16.3361 4.98531C16.3315 5.2272 16.4016 5.25975 16.6103 5.13843C17.0217 4.8995 17.4384 4.67093 17.8558 4.4431C18.5144 4.08359 19.2885 4.24633 19.6552 4.81814C20.048 5.43136 19.8616 6.17256 19.1869 6.56462C18.348 7.05135 17.4992 7.52107 16.645 7.98266C16.4262 8.10101 16.3292 8.23342 16.3307 8.48123C16.3407 10.2255 16.3354 11.969 16.3361 13.7133C16.3361 14.0092 16.3431 14.0114 16.6111 13.8634C18.1763 12.998 19.7391 12.1288 21.3082 11.27C21.5377 11.1442 21.6286 10.9948 21.6247 10.7403C21.6116 9.8179 21.614 8.89473 21.6224 7.9723C21.6286 7.28436 21.9837 6.84423 22.6253 6.69481C23.4056 6.51357 24.1651 7.06171 24.1851 7.8325C24.1982 8.35844 24.1951 8.88438 24.1889 9.41032C24.1866 9.60634 24.2429 9.63667 24.4185 9.53681C24.9561 9.23205 25.4922 8.92284 26.043 8.64175C26.797 8.25783 27.642 8.60624 27.8931 9.38369C28.0657 9.91777 27.8508 10.4666 27.3108 10.7906C26.8063 11.0939 26.2848 11.3721 25.7711 11.6613C25.5903 11.7629 25.5875 11.8627 25.7626 11.9609C26.1862 12.1976 26.6106 12.4321 27.0312 12.674C27.7152 13.0675 27.917 13.7443 27.545 14.382C27.1945 14.9819 26.4104 15.1757 25.7395 14.8125C24.97 14.396 24.1912 13.9892 23.4503 13.5283C23.0543 13.2828 22.7624 13.2953 22.3634 13.5261C20.8653 14.3916 19.3432 15.2186 17.8312 16.0611C17.5485 16.2187 17.5501 16.2202 17.8235 16.3718C19.3694 17.2321 20.9184 18.0872 22.4597 18.9564C22.7216 19.1036 22.9265 19.1184 23.1976 18.9616C24.0364 18.4749 24.8922 18.0162 25.7441 17.5509C26.4104 17.187 27.1621 17.352 27.5326 17.9363C27.9185 18.5436 27.7314 19.2649 27.0674 19.6628C26.6114 19.9365 26.1423 20.1903 25.6748 20.4455C25.4922 20.5453 25.4414 20.6067 25.6671 20.7273C26.2548 21.0409 26.8463 21.3516 27.4086 21.7037C28.2459 22.2282 28.1797 23.3881 27.3016 23.8252C26.8779 24.0361 26.4458 24.0139 26.0329 23.7905C25.5053 23.5057 24.98 23.2172 24.4601 22.9191C24.259 22.8037 24.1805 22.8081 24.1882 23.0626C24.202 23.5146 24.1959 23.9665 24.1889 24.4192C24.1774 25.159 23.6305 25.6805 22.8795 25.676C22.1624 25.6723 21.6209 25.1272 21.6178 24.4008C21.6147 23.4961 21.6078 22.5921 21.6232 21.6882C21.6278 21.4293 21.5277 21.285 21.302 21.1615C19.7345 20.2997 18.1732 19.4284 16.6096 18.5607C16.3515 18.4179 16.3315 18.4282 16.3315 18.7204C16.3315 20.4462 16.3369 22.172 16.3315 23.897C16.3315 24.1093 16.4108 24.2321 16.6003 24.3364C17.4838 24.8224 18.3658 25.3121 19.2377 25.8166C19.7253 26.0984 19.9286 26.5689 19.8216 27.066C19.7014 27.6237 19.3147 27.9921 18.7501 28.0883C18.4382 28.1415 18.1578 28.0417 17.8936 27.907C17.4607 27.6866 17.0386 27.4477 16.6111 27.2183C16.3731 27.0911 16.3346 27.1103 16.3323 27.3722C16.3277 27.8523 16.3115 28.3331 16.3354 28.8117C16.3731 29.5766 16.0858 30.1217 15.2932 30.3636H14.774L14.7756 30.3629Z" stroke="#41F4FF" stroke-width="3" mask="url(#path-1-outside-1_208_37736)"/>
</svg>
