<svg width="26" height="26" viewBox="0 0 26 26" fill="none" xmlns="http://www.w3.org/2000/svg">
<path d="M12.1875 1.625V13H13.8125V1.625H12.1875Z" fill="#717171"/>
<path d="M4.87501 14.3195C4.87461 12.8683 5.26297 11.4435 5.99969 10.1933C6.73642 8.94301 7.79462 7.91293 9.06426 7.21012L8.27613 5.78987C6.39199 6.83323 4.90633 8.47109 4.05109 10.4477C3.19585 12.4244 3.01917 14.6286 3.54862 16.7163C4.07808 18.8039 5.28387 20.6575 6.97776 21.9877C8.67164 23.3178 10.7583 24.0497 12.9119 24.069C15.0656 24.0883 17.165 23.394 18.8825 22.0945C20.6 20.7949 21.8389 18.9633 22.4057 16.8854C22.9725 14.8076 22.8354 12.6006 22.0158 10.6089C21.1962 8.61725 19.7401 6.953 17.875 5.876L17.0609 7.28162C18.2963 7.99449 19.3222 9.01999 20.0356 10.255C20.749 11.4901 21.1247 12.8912 21.125 14.3175C21.1253 15.7438 20.7501 17.145 20.0371 18.3803C19.3242 19.6157 18.2986 20.6416 17.0635 21.3549C15.8284 22.0682 14.4273 22.4438 13.001 22.444C11.5747 22.4442 10.1735 22.0689 8.93822 21.3559C7.70294 20.6429 6.67712 19.6172 5.96388 18.3821C5.25063 17.1469 4.87509 15.7458 4.87501 14.3195Z" fill="#717171"/>
</svg>
