<svg width="33" height="23" viewBox="0 0 33 23" fill="none" xmlns="http://www.w3.org/2000/svg">
<path d="M16.4873 1.00108C10.5945 1.00784 5.81883 5.70416 5.81195 11.5004C6.3136 25.3962 26.6629 25.3919 27.162 11.5004C27.1558 5.70416 22.3801 1.00784 16.4873 1.00108ZM16.4873 19.3748C5.90702 19.0438 5.90828 3.95519 16.4873 3.62607C27.0676 3.95704 27.0663 19.0457 16.4873 19.3748ZM17.8215 7.56325V11.5004C17.8215 12.2251 17.2241 12.8126 16.4873 12.8126C15.7505 12.8126 15.1531 12.2251 15.1531 11.5004V7.56325C15.1531 6.83856 15.7505 6.25106 16.4873 6.25106C17.2241 6.25106 17.8215 6.83856 17.8215 7.56325ZM32.5 11.5004C32.4975 15.1577 31.2033 18.6999 28.8396 21.523C28.3698 22.0822 27.5286 22.161 26.96 21.6996C26.3914 21.2376 26.3113 20.4102 26.7805 19.851C30.8199 14.9922 30.8199 8.00803 26.7805 3.1493C26.3107 2.5901 26.3914 1.76267 26.96 1.30067C27.5286 0.838667 28.3698 0.918026 28.8396 1.47723C31.2033 4.30031 32.4975 7.84316 32.5 11.4998V11.5004ZM6.1935 19.851C6.66325 20.4095 6.58319 21.237 6.01461 21.699C5.44666 22.161 4.60537 22.0822 4.13562 21.523C-0.711977 15.6917 -0.711977 7.30857 4.13624 1.47784C4.60599 0.919256 5.44666 0.840513 6.01524 1.3019C6.58319 1.76391 6.66325 2.59071 6.19413 3.14992C2.15467 8.00865 2.15467 14.9928 6.19413 19.8516L6.1935 19.851ZM17.8215 15.4376C17.8215 16.1623 17.2241 16.7498 16.4873 16.7498C15.7505 16.7498 15.1531 16.1623 15.1531 15.4376C15.1531 14.7129 15.7505 14.1254 16.4873 14.1254C17.2241 14.1254 17.8215 14.7129 17.8215 15.4376Z" fill="#4AA452" stroke="#4AA452" stroke-width="0.1"/>
</svg>
