<svg width="24" height="24" viewBox="0 0 24 24" fill="none" xmlns="http://www.w3.org/2000/svg">
<g clip-path="url(#clip0_27_789)">
<path d="M2 19.1393C2.14825 18.3623 2.58429 17.7679 3.13729 17.2193C5.81712 14.5592 8.47952 11.8816 11.1527 9.21538C11.2948 9.07373 11.3374 8.94953 11.2902 8.74885C10.513 5.44412 12.7347 2.13118 16.0861 1.58254C17.1326 1.41111 18.1519 1.50504 19.145 1.87816C19.7129 2.09167 19.8262 2.60593 19.3964 3.03705C18.4181 4.01887 17.4393 5.00017 16.4549 5.97584C16.3277 6.10158 16.2918 6.21808 16.3343 6.39258C16.4344 6.80317 16.519 7.21838 16.598 7.63359C16.6278 7.79064 16.7022 7.86454 16.8591 7.89431C17.2808 7.97489 17.702 8.06214 18.1195 8.16222C18.2791 8.2002 18.3868 8.16633 18.5012 8.05085C19.482 7.06184 20.469 6.079 21.4529 5.09307C21.6484 4.89753 21.8669 4.78205 22.1511 4.86417C22.3717 4.92781 22.5117 5.07921 22.5897 5.28913C23.2253 6.99974 23.1283 8.67135 22.2578 10.2721C21.4319 11.7913 20.1504 12.7536 18.4781 13.1853C17.585 13.4157 16.6822 13.4306 15.7849 13.2109C15.5526 13.154 15.411 13.2078 15.2489 13.3711C12.5695 16.0609 9.87945 18.7395 7.20526 21.434C6.67894 21.9642 6.09516 22.3527 5.35903 22.4995H4.45771C3.91241 22.3819 3.41122 22.1782 2.98442 21.803C2.4463 21.3298 2.13902 20.7334 2 20.0406V19.1388L2 19.1393ZM17.7158 2.86357C17.6527 2.80866 17.5768 2.80455 17.504 2.80301C17.1428 2.79583 16.7827 2.78248 16.4216 2.83278C13.5617 3.23002 11.8016 6.08721 12.6306 8.78478C12.7588 9.20204 12.6824 9.50741 12.3731 9.81536C9.52806 12.6479 6.69433 15.4923 3.85239 18.3284C3.44662 18.7333 3.23424 19.1942 3.27836 19.7768C3.33325 20.4948 4.0068 21.1676 4.72498 21.221C5.2985 21.2636 5.75659 21.0598 6.15672 20.659C9.01148 17.7972 11.8714 14.9405 14.7256 12.0782C14.977 11.8262 15.2463 11.7195 15.5926 11.8319C16.2092 12.0325 16.8376 12.1111 17.4881 12.0469C18.5151 11.9458 19.4179 11.5624 20.1776 10.8701C21.0548 10.0704 21.5596 9.06706 21.6797 7.88456C21.7171 7.5176 21.7299 7.14191 21.6022 6.7498C21.5309 6.79291 21.4986 6.86373 21.4468 6.91608C20.6665 7.70031 19.8816 8.47992 19.1034 9.26568C18.8664 9.50485 18.6079 9.59312 18.2709 9.51357C17.5409 9.34164 16.8063 9.18715 16.0722 9.03472C15.7321 8.96441 15.532 8.77297 15.4607 8.43218C15.3099 7.71109 15.1673 6.98742 14.9903 6.27249C14.897 5.89474 14.9914 5.61606 15.2607 5.35123C16.0353 4.59061 16.7986 3.81871 17.565 3.04936C17.6204 2.99342 17.6958 2.95082 17.7163 2.86255L17.7158 2.86357Z" fill="#4AA452" stroke="#4AA452" stroke-width="0.5"/>
</g>
<defs>
<clipPath id="clip0_27_789">
<rect width="23" height="23" fill="white" transform="translate(0.5 0.299988)"/>
</clipPath>
</defs>
</svg>
