<svg width="26" height="24" viewBox="0 0 26 24" fill="none" xmlns="http://www.w3.org/2000/svg">
<path d="M12.8965 2.41388C12.9283 2.39642 12.9642 2.38747 13.0005 2.38789C13.0362 2.38775 13.0715 2.39669 13.1028 2.41388C13.14 2.43616 13.1703 2.46819 13.1906 2.50649L24.3312 21.462C24.3897 21.5595 24.3881 21.6635 24.3345 21.7593C24.3139 21.7987 24.2837 21.8322 24.2467 21.8568C24.2146 21.8766 24.1772 21.8862 24.1395 21.8844H1.86144C1.82372 21.8863 1.78634 21.8767 1.75421 21.8568C1.71725 21.8322 1.68708 21.7987 1.66647 21.7593C1.6397 21.7143 1.62584 21.6627 1.62641 21.6102C1.62698 21.5578 1.64197 21.5065 1.66972 21.462L12.8088 2.50649C12.8291 2.46824 12.8594 2.43623 12.8965 2.41388ZM14.5927 1.68276C14.4319 1.4026 14.2 1.16984 13.9204 1.00798C13.6408 0.84611 13.3235 0.760874 13.0005 0.760874C12.6774 0.760874 12.3601 0.84611 12.0805 1.00798C11.801 1.16984 11.5691 1.4026 11.4083 1.68276L0.267593 20.6383C-0.474901 21.9023 0.415442 23.5092 1.85981 23.5092H24.1395C25.5839 23.5092 26.4758 21.9007 25.7317 20.6383L14.5927 1.68276Z" fill="#B71C1C"/>
<path d="M11.3758 18.635C11.3758 18.4217 11.4178 18.2104 11.4994 18.0133C11.5811 17.8161 11.7008 17.637 11.8516 17.4862C12.0025 17.3353 12.1816 17.2156 12.3787 17.134C12.5758 17.0523 12.7871 17.0103 13.0005 17.0103C13.2138 17.0103 13.4251 17.0523 13.6222 17.134C13.8193 17.2156 13.9984 17.3353 14.1493 17.4862C14.3002 17.637 14.4199 17.8161 14.5015 18.0133C14.5832 18.2104 14.6252 18.4217 14.6252 18.635C14.6252 19.0659 14.454 19.4792 14.1493 19.7839C13.8446 20.0886 13.4314 20.2597 13.0005 20.2597C12.5696 20.2597 12.1563 20.0886 11.8516 19.7839C11.5469 19.4792 11.3758 19.0659 11.3758 18.635ZM11.535 8.87862C11.5133 8.67365 11.535 8.46641 11.5987 8.27037C11.6623 8.07433 11.7664 7.89385 11.9043 7.74065C12.0422 7.58745 12.2107 7.46494 12.399 7.38109C12.5873 7.29724 12.7911 7.2539 12.9972 7.2539C13.2033 7.2539 13.4071 7.29724 13.5954 7.38109C13.7837 7.46494 13.9523 7.58745 14.0901 7.74065C14.228 7.89385 14.3321 8.07433 14.3958 8.27037C14.4594 8.46641 14.4811 8.67365 14.4595 8.87862L13.8908 14.5765C13.8717 14.8003 13.7693 15.0088 13.6038 15.1608C13.4383 15.3127 13.2219 15.3971 12.9972 15.3971C12.7726 15.3971 12.5561 15.3127 12.3906 15.1608C12.2252 15.0088 12.1227 14.8003 12.1036 14.5765L11.535 8.87862Z" fill="#B71C1C"/>
</svg>
