<svg width="45" height="33" viewBox="0 0 45 33" fill="none" xmlns="http://www.w3.org/2000/svg">
<path d="M13.0221 24.1045V26.6592H1.85413V25.6162C1.85413 24.4131 2.15881 23.2881 2.76819 22.2412C3.37756 21.1866 4.31506 20.1826 5.58069 19.2295C7.10413 18.0655 8.13538 17.21 8.67444 16.6631C9.2135 16.1084 9.60803 15.5772 9.85803 15.0694C10.108 14.5616 10.233 14.0342 10.233 13.4873C10.233 12.6123 9.92053 11.917 9.29553 11.4014C8.67834 10.8858 7.80725 10.628 6.68225 10.628C5.25256 10.628 3.91663 11.0811 2.67444 11.9873V9.59671C4.15881 8.66702 5.78772 8.20218 7.56116 8.20218C9.23303 8.20218 10.5533 8.6514 11.5221 9.54984C12.4987 10.4483 12.9869 11.667 12.9869 13.2061C12.9869 14.0811 12.8385 14.878 12.5416 15.5967C12.2526 16.3076 11.8385 16.9717 11.2994 17.5889C10.7682 18.2061 9.83069 19.0186 8.48694 20.0264C7.36194 20.8545 6.60022 21.46 6.20178 21.8428C5.81116 22.2178 5.49866 22.5928 5.26428 22.9678C5.02991 23.3428 4.91272 23.7217 4.91272 24.1045H13.0221ZM29.0276 10.9209H22.1838V16.5576H28.5002V18.96H22.1838V26.6592H19.3713V8.50687H29.0276V10.9209Z" fill="#C2A344"/>
<path d="M18.401 2.65921H42.401V28.6592" stroke="#C2A344" stroke-width="4"/>
</svg>
