<svg width="30" height="30" viewBox="0 0 30 30" fill="none" xmlns="http://www.w3.org/2000/svg">
<path id="Vector" d="M26.1675 8.83363C24.1128 8.82897 22.444 10.4931 22.4394 12.5494C22.4347 14.6063 24.0971 16.2769 26.1513 16.2815C26.4169 16.2815 26.6814 16.2542 26.9412 16.1983C25.3823 22.3609 20.0946 26.8575 13.767 27.401V24.8821C17.9602 24.4602 21.6518 21.9355 23.5693 18.179C20.4695 16.7581 19.1076 13.0906 20.527 9.98805C21.1438 8.64045 22.2231 7.55992 23.5693 6.94256C20.4741 0.827731 13.012 -1.61669 6.90358 1.48233C0.794583 4.58135 -1.64727 12.0513 1.4485 18.1662C3.36315 21.9477 7.0733 24.4899 11.2874 24.9077V29.9362H12.5272C22.111 29.9257 29.8771 22.1514 29.8876 12.5576C29.8876 10.5007 28.2223 8.83363 26.1675 8.83363ZM12.5272 10.0747C13.8967 10.0747 15.0074 11.1861 15.0074 12.5576C15.0074 13.929 13.8972 15.0404 12.5272 15.0404C11.1572 15.0404 10.047 13.929 10.047 12.5576C10.047 11.1861 11.1572 10.0747 12.5272 10.0747Z" fill="#C2A344"/>
</svg>
