<svg width="62" height="32" viewBox="0 0 62 32" fill="none" xmlns="http://www.w3.org/2000/svg">
<path d="M2.27344 26V7.84766H7.94531C9.65625 7.84766 11.0039 8.22656 11.9883 8.98438C12.9805 9.74219 13.4766 10.7617 13.4766 12.043C13.4766 13.043 13.1758 13.9219 12.5742 14.6797C11.9727 15.4375 11.1797 15.9688 10.1953 16.2734V16.3203C11.4297 16.4609 12.4219 16.9258 13.1719 17.7148C13.9297 18.5039 14.3086 19.5039 14.3086 20.7148C14.3086 22.293 13.7422 23.5703 12.6094 24.5469C11.4844 25.5156 9.99609 26 8.14453 26H2.27344ZM5.08594 10.1562V15.4648H7.125C8.19531 15.4648 9.02734 15.207 9.62109 14.6914C10.2148 14.1758 10.5117 13.4688 10.5117 12.5703C10.5117 10.9609 9.41016 10.1562 7.20703 10.1562H5.08594ZM5.08594 17.7852V23.6914H7.73438C8.88281 23.6914 9.77344 23.4258 10.4062 22.8945C11.0391 22.3633 11.3555 21.625 11.3555 20.6797C11.3555 18.75 10.0547 17.7852 7.45312 17.7852H5.08594ZM27.3727 7.36719V26H24.5367V10.4492C23.943 10.9648 23.2672 11.4336 22.5094 11.8555C21.7516 12.2773 21.0289 12.5781 20.3414 12.7578V10.0859C22.3414 9.45312 24.107 8.54688 25.6383 7.36719H27.3727ZM46.4953 10.2617H39.6516V15.8984H45.968V18.3008H39.6516V26H36.8391V7.84766H46.4953V10.2617Z" fill="#C2A344"/>
<path d="M36 2H60V28" stroke="#C2A344" stroke-width="4"/>
</svg>
